/* XPM */
static char *dd7a936824f24e2dd98399df48a67cb6rGZB4JwTnehfYAcc[] = {
/* columns rows colors chars-per-pixel */
"32 32 121 2 ",
"   c None",
".  c #065CAC",
"X  c #0B5FAD",
"o  c #0D61AF",
"O  c #1063AF",
"+  c #1566B1",
"@  c #1768B1",
"#  c #1C6BB4",
"$  c #206DB4",
"%  c #2672B7",
"&  c #2E77BA",
"*  c #357BBB",
"=  c #3B7FBE",
"-  c #3E81BF",
";  c #4182BF",
":  c #4585C1",
">  c #4987C2",
",  c #4C8AC4",
"<  c #518DC5",
"1  c #5791C7",
"2  c #5892C7",
"3  c #5792C8",
"4  c #5D96C9",
"5  c #6097CA",
"6  c #6399CB",
"7  c #6A9ECE",
"8  c #6EA1CF",
"9  c #72A3D0",
"0  c #78A7D2",
"q  c #7BA9D3",
"w  c #82ADD5",
"e  c #87B1D7",
"r  c #89B2D7",
"t  c #87B1D8",
"y  c #8CB4D9",
"u  c #91B7DB",
"i  c #95B9DC",
"p  c #9BBDDE",
"a  c #A0C1DF",
"s  c #A2C2E0",
"d  c #A9C7E2",
"f  c #A8C7E3",
"g  c #A9C7E3",
"h  c #A9C6E2",
"j  c #AAC7E3",
"k  c #A9C7E2",
"l  c #AAC8E3",
"z  c #ADC9E2",
"x  c #AEC9E3",
"c  c #AFCBE3",
"v  c #ADC9E4",
"b  c #ADCAE4",
"n  c #AECAE4",
"m  c #AFCBE4",
"M  c #AFCBE5",
"N  c #B0CBE5",
"B  c #B0CCE4",
"V  c #B1CCE5",
"C  c #B2CDE5",
"Z  c #B2CDE6",
"A  c #B3CDE6",
"S  c #B7D0E7",
"D  c #B7D0E7",
"F  c #B9D1E8",
"G  c #BAD2E8",
"H  c #BAD2E9",
"J  c #BBD3E9",
"K  c #BDD4E9",
"L  c #BDD5E9",
"P  c #BED4E9",
"I  c #BED5EA",
"U  c #C0D5EB",
"Y  c #C2D7EC",
"T  c #C2D8EA",
"R  c #C4D9EB",
"E  c #C5D9EB",
"W  c #C4DAEB",
"Q  c #C4D8EC",
"!  c #C5D9EC",
"~  c #C6D9EC",
"^  c #C6D9ED",
"/  c #C5DAEC",
"(  c #C5DBED",
")  c #C6DAEC",
"_  c #C7DBED",
"`  c #C4D9EC",
"'  c #CADDED",
"]  c #CBDDED",
"[  c #CBDFED",
"{  c #CADCEE",
"}  c #CCDDEE",
"|  c #CFDFEF",
" . c #CBDEEE",
".. c #D2E1F0",
"X. c #D2E1F1",
"o. c #D2E2F0",
"O. c #D3E2F0",
"+. c #D2E2F1",
"@. c #D7E5F1",
"#. c #D3E3F1",
"$. c #D8E6F2",
"%. c #DAE7F2",
"&. c #DAE7F3",
"*. c #D9E7F3",
"=. c #DDE8F3",
"-. c #DDE9F4",
";. c #DEEAF4",
":. c #DFEAF5",
">. c #DFEAF5",
",. c #E3EDF5",
"<. c #E5EEF7",
"1. c #E7EFF7",
"2. c #E6EFF7",
"3. c #E8EFF8",
"4. c #EBF2F9",
"5. c #EDF3F9",
"6. c #F0F6FB",
"7. c #F4F8FB",
"8. c #F6F8FB",
"9. c #FBFBFD",
"0. c #F9FBFD",
/* pixels */
"                                                                ",
"                                                                ",
"                    4 , > - * & % # @                           ",
"                9 7 4 3 , , - * & % # @ O                       ",
"              w q 9 7 4 2 , : : = & % $ @ o .                   ",
"            u r q q 8 7 5 2 , : - * & % # @ o .                 ",
"          s p y y q q e w 9 7 1 > - * & % # @ O .               ",
"        Z f s p y y i                 , & % # @ O .             ",
"      Y J Z u q w w     < > = * % @ +   e : % # @ o .           ",
"      ' K w 7 9 0   9 7 4 <             @ x , % # @ O           ",
"    %.' 7 4 6 7   r w 9                     ( , % # +   .       ",
"    ,.r < 3 5     p y                       | ( : % # @ o       ",
"    f ; > < 2   n s                           ' f & % #   o     ",
"    , = : > ,   J x                           ( | 9 & %   +     ",
"    & * = ; :   Q                             I Y M * &   #     ",
"    % & * = 4 @.|                             D I ( 6 *   #     ",
"    $ % & * u   &.                            n D K w -   %     ",
"    @ $ % 2 n   2.                            f N D p ,   &     ",
"    + @ # 9 F x 5.                          a s f N z <   *     ",
"      + # y Q J 4.                          i p s f s   : =     ",
"      o + 0 #.Q J 7.                      @ y i p s l   : :     ",
"      . X 6 -.#.( U                     * - r y i p     , ,     ",
"        . @ =.-...( J n             3 > = 2 w w y i   4 1       ",
"          . y 5.-.#.( J n s i r q 9 5 3 , 7 0 w r     6 4       ",
"            + %.4.-.#.Q J v a i e q 8 5 5 7 9 q     9 7         ",
"              & %.4.-.#.( J n a i r q 6 4 6 7     q 0           ",
"                w Y 4.,...Q F v s y 6 < 2       u r q           ",
"                  0.  2.=.( N y 7 : ;       s p i               ",
"                    0.8.              K D N f s                 ",
"                          5.2.,.%.#.' ( U D                     ",
"                                                                ",
"                                                                "
};
