/* XPM */
static char *_fd439e355dc42f8fce5465ea1d4dc7a7lAJXdRj6zvfWxWA[] = {
/* columns rows colors chars-per-pixel */
"64 64 136 2 ",
"   c None",
".  c #055CAC",
"X  c #095FAD",
"o  c #0D61AF",
"O  c #1163AF",
"+  c #0F62B0",
"@  c #1465B1",
"#  c #1C6BB3",
"$  c #226FB5",
"%  c #2671B7",
"&  c #2973B6",
"*  c #2C75B9",
"=  c #3077BA",
"-  c #347ABB",
";  c #3A7EBE",
":  c #3E81BF",
">  c #4384BF",
",  c #3F82C0",
"<  c #4485C1",
"1  c #4887C2",
"2  c #4C8AC3",
"3  c #528EC6",
"4  c #5691C7",
"5  c #5892C7",
"6  c #5B94C9",
"7  c #6097CA",
"8  c #649ACC",
"9  c #6A9DCD",
"0  c #6EA1CF",
"q  c #70A2CF",
"w  c #74A4D1",
"e  c #79A7D2",
"r  c #7CA9D3",
"t  c #82ADD5",
"y  c #86B0D7",
"u  c #89B2D7",
"i  c #87B1D8",
"p  c #8EB5DA",
"a  c #8EB6DA",
"s  c #8DB5D9",
"d  c #8BB4D9",
"f  c #90B6DA",
"g  c #90B7DA",
"h  c #91B7DA",
"j  c #91B7DB",
"k  c #92B7DB",
"l  c #91B7DA",
"z  c #91B8DA",
"x  c #91B8DB",
"c  c #94B9DB",
"v  c #95BADC",
"b  c #96BBDC",
"n  c #97BBDC",
"m  c #95B9DC",
"M  c #98BCDD",
"N  c #99BCDD",
"B  c #99BDDD",
"V  c #9BBEDE",
"C  c #9CBEDE",
"Z  c #9DBFDE",
"A  c #9DBFDF",
"S  c #9ABDDE",
"D  c #9FC1DF",
"F  c #9FC0DF",
"G  c #A0C1DF",
"H  c #9FC1E0",
"J  c #A1C1E0",
"K  c #A1C2E0",
"L  c #A2C2E0",
"P  c #A5C4E1",
"I  c #A5C5E1",
"U  c #A4C3E1",
"Y  c #A9C7E2",
"T  c #AAC6E3",
"R  c #AAC7E3",
"E  c #A9C7E3",
"W  c #AAC8E3",
"Q  c #ADCAE4",
"!  c #AECAE4",
"~  c #ADC9E4",
"^  c #B1CDE5",
"/  c #B2CDE5",
"(  c #B2CDE6",
")  c #B3CEE6",
"_  c #B4CEE6",
"`  c #B6CFE7",
"'  c #B3CEE6",
"]  c #B6D0E7",
"[  c #B9D1E7",
"{  c #BAD2E8",
"}  c #BAD3E9",
"|  c #BBD3E9",
" . c #BDD4E9",
".. c #BED5EA",
"X. c #BBD3E9",
"o. c #C0D6EA",
"O. c #C1D6EA",
"+. c #C1D7EB",
"@. c #C2D7EB",
"#. c #C0D6EA",
"$. c #C5DAEC",
"%. c #C6DAEC",
"&. c #C7DAEC",
"*. c #C7DAED",
"=. c #C5DAEC",
"-. c #CBDEED",
";. c #CADDEE",
":. c #CBDDEE",
">. c #CEDFEF",
",. c #CFDFEF",
"<. c #CBDDEE",
"1. c #CFE0EF",
"2. c #CFE0EF",
"3. c #D1E1EF",
"4. c #D1E1EF",
"5. c #CFE0F0",
"6. c #D1E1F0",
"7. c #D2E1F0",
"8. c #D2E2F0",
"9. c #D3E2F0",
"0. c #D2E2F1",
"q. c #D7E5F2",
"w. c #D3E2F0",
"e. c #D9E6F2",
"r. c #DBE8F3",
"t. c #DFEAF4",
"y. c #DEEAF4",
"u. c #E2EDF5",
"i. c #E3EDF6",
"p. c #E4EEF6",
"a. c #E8F0F6",
"s. c #E8F1F6",
"d. c #EBF2F9",
"f. c #F1F6FB",
"g. c #F6F9FC",
"h. c #FAFCFE",
/* pixels */
"                                                                                                                                ",
"                                                                                                                                ",
"                                                                                                                                ",
"                                                      ; - = & &                                                                 ",
"                                            2 2 1 < : ; - - = & % % # # @                                                       ",
"                                        6 6 3 2 2 1 < : : - - & % % % # # @ @ +                                                 ",
"                                    9 8 7 6 6 3 2 2 1 < : ; - - = & % % # # @ @ o .                                             ",
"                                w w 9 9 8 7 6 6 4 2 2 1 < : : - - * & % % # # @ @ o o .                                         ",
"                            t r e w w 9 8 8 7 6 6 3 3 2 < < : ; - - * & % % # # @ @ + o .                                       ",
"                          i t t r e w w 9 9 8 6 6 4 3 2 2 1 < , , - - = & % % # # @ + + o .                                     ",
"                        k a i t t r e e w 9 8 8 7 6 5 3 2 2 1 < , : - - * & % % # # @ + o o . .                                 ",
"                      B m k a d t t r e w w 0 9 7 7 6 5 3 2 2 2 , , , ; - = & & % # # @ + o o . .                               ",
"                    L Z B m k a i t t r r w w 9 9 9 9 8 8 3 2 2 < , : : - - * & % $ # # @ + + o . .                             ",
"                  R P L Z B m k a i t t t t a Z L R               < 1 : : - - * & % % # # @ + + o .                             ",
"                ) ! R P L Z n m k d i a n n Z                           9 2 - - = * % $ # # @ @ o X .                           ",
"                ` ) ! R P L Z k y y d a k             ; - - & % % # @       w 2 - * * % % # # @ @ o o .                         ",
"               .X.] ) ~ W D t r t t y u           2 1 < ; - - & % $ # @ + +     a < = & & # # # @ @ o . .                       ",
"            &.@. .X.` ) z w w w r t t         6 6 3 2 2 , : - - & % # # @ + o .   *.r = & % % # # @ @ + X                       ",
"            :.&.@. .` e 9 0 w w e         q 9 8 6 6 3 2 1 <                 + . .   0.n , & % % # # @ @ + X                     ",
"          &.>.:.&.] 9 8 9 9 0 w w       e w q 9 8 6 6                             .   0..., & % $ # # @ @ +   .                 ",
"          q.9.>.{ 8 6 8 8 9 9 0       t t e w q 9                                       9. .< & % $ # # @ @   . .               ",
"          r.q.@.8 4 6 6 7 8 9       z a y t e w                                         2.9.@.< & % % # # @ @   .               ",
"        u.y.3.6 3 3 4 6 6 6 8       n z i y t                                             2.9.] = & % $ # # @   o X             ",
"        p.u.t 2 2 2 3 5 6 6       L Z n z d                                               :.2.3.a * & & % # #     o             ",
"        d.Z < < 1 2 2 4 5 6     ! P L A n                                                 &.:.:.5.6 * * % $ # #   o o           ",
"        e.3 : < < 1 2 2 3 5     ) ! E L                                                     ;.:.5.} , = & % % #   @ o           ",
"        r - ; > < < 2 2 2       { ( ! E                                                     &.;.5.5.t - = & % %   @ @ O         ",
"      &.- - - ; : > < 1 2     @...{ (                                                       @.@.@.;.*., - = & %     @ @         ",
"      * * - - ; ; : < 1 1     :.@. .{                                                        .+.@.;.:.t ; - * &     # @         ",
"      $ & * = - - ; : < 1     >.;.&.                                                        [  .+.&.;.+.; - - *     # #         ",
"      $ % * * = - - : , <     w.5.:.                                                        ] [  .+.+.%.7 ; ; -     $ #         ",
"      $ $ % * * - - - ; 3     e.w.5.                                                        ` ] X. .+.+.a : ; -     $ $         ",
"        # % % & * - - - y     u.e.q.                                                        ! ) ` { X. .X.< : ;     & % #       ",
"        # # $ & & * = < P G   p.y.e.                                                        ! ! ) ` {  .@.5 1 :     & & %       ",
"        # # # $ % & * 9 ! P   a.p.u.                                                        R ! ! ) ] {  .w 1 1     * & %       ",
"        @ @ # $ $ & & n ) !     d.p.                                                      L P R ~ ! ) { { t 2       - * *       ",
"        @ @ # # $ $ & _ { ) !   f.d.                                                      Z L P R W ! ` ` k 2       - = *       ",
"          @ @ @ # # * &. .X.)   f.f.                                                    n Z A L P R R ^ _ n 3     , - - -       ",
"          + @ @ # # - 5.&. .{ `   g.f.                                                  n n Z F L P R W ! A 6     , ; ;         ",
"          X o @ @ # = 9.>.&. .{     g.                                                X a n n Z Z L P R ! B       < , ;         ",
"            o + O @ - q.3.>.&. .{   h.                                              @ @ f f k n Z D L P R !     2 < , ,         ",
"            X X o O @ u.e.3.:.&.@.{   h.                                            # * u d k k n Z F L L       2 1 1 <         ",
"              . o o @ | t.e.9.:.%. .[                                           - & % ; i d d k n n B F L       2 2 2           ",
"              . . X o d p.t.e.9.>.%.@.[  .                                    , ; = & 6 t i i p k c n B       5 3 3 2           ",
"                . . X 1 d.p.y.e.9.;.&...X.(                               3 1 < ; ; * w r y y i d k n         6 5 3 3           ",
"                  . . o p.d.p.y.e.9.;.&.@.{ ) ! R                     8 6 5 3 2 < ; < r r r t y i a k       8 6 6 5             ",
"                  . . o t f.d.p.y.e.9.;.&...{ ) ~ P G B n a y t r w 0 9 8 6 5 2 2 < 6 w r r r y i i       9 8 6 6 6             ",
"                    . . @ e.d.d.a.y.e.9.5.&. .{ ^ ! R G B m a i t r w 0 9 6 6 5 2 2 0 w w r r r t         9 9 8 8               ",
"                      . . < g.d.d.p.y.e.9.:.&...{ ( ! E H B n a y t r w 0 9 8 6 4 8 9 0 w w e r         w 0 9 9                 ",
"                        . . k h.f.d.p.y.e.9.:.&...{ ) ! P H V k a u t e q 0 9 7 6 8 9 9 9 w w         e w w 0 9                 ",
"                            . H h.f.d.p.y.q.9.:.&...{ ) ! E H B m a y t r w 0 7 6 8 8 9 9 q         t r e w w                   ",
"                              . G g.f.d.a.y.e.9.5.&...] ( ! P L B m a u t r 8 4 6 6 7 8 9         i t t r e                     ",
"                                X z h.f.d.i.y.e.9.:.&. .[ ] ! P G B m a t 8 2 4 3 6 6           a i u t t                       ",
"                                    ; w.f.d.a.y.q.9.:.&. .] ) ! P G B t 2 1 2 2 3           n n k k i i                         ",
"                                    h.    y.d.a.y.q.9.>.:. .X.] P t 3 : < 1 2             H V B m k a                           ",
"                                      h.        u.5.:.W L i w 2 ; - ;                 R P L H B n m                             ",
"                                        h.h.g.                                    ( ) W R E L H B                               ",
"                                            g.g.f.d.d.                    &.@. .{ ] ) ! W E P                                   ",
"                                                g.f.d.d.a.u.y.y.e.w.w.5.:.:.@.+. .{ ] ) !                                       ",
"                                                      d.d.a.i.y.y.e.q.9.2.:.&.&.@. .                                            ",
"                                                              u.y.y.e.q.2.                                                      ",
"                                                                                                                                ",
"                                                                                                                                ",
"                                                                                                                                "
};
