/* XPM */
static char *eaa5228de31b438cc8a041df216d8a28mkKBoGLExwa1D5Zd[] = {
/* columns rows colors chars-per-pixel */
"16 16 96 2 ",
"   c None",
".  c #075CAC",
"X  c #085EAB",
"o  c #085DAE",
"O  c #1465B0",
"+  c #1567B1",
"@  c #1667B1",
"#  c #1667B2",
"$  c #1967B1",
"%  c #1F6DB4",
"&  c #2671B6",
"*  c #2671B7",
"=  c #2A74B7",
"-  c #2C75B9",
";  c #2D76B9",
":  c #3078B9",
">  c #3179BA",
",  c #357BBD",
"<  c #367CBC",
"1  c #377CBD",
"2  c #397EBC",
"3  c #397FBD",
"4  c #3B7FBE",
"5  c #3E81BF",
"6  c #3F81BF",
"7  c #4787C2",
"8  c #4988C2",
"9  c #4988C3",
"0  c #4889C3",
"q  c #4A89C4",
"w  c #518EC5",
"e  c #528FC6",
"r  c #538FC6",
"t  c #5690C6",
"y  c #5792C7",
"u  c #5692C8",
"i  c #5892C8",
"p  c #5D95C9",
"a  c #6099C9",
"s  c #6399CB",
"d  c #6499CB",
"f  c #689CCD",
"g  c #6C9FCE",
"h  c #6E9FCF",
"j  c #71A1CF",
"k  c #71A4D0",
"l  c #73A4D0",
"z  c #74A4D1",
"x  c #78A7D2",
"c  c #7AA7D3",
"v  c #80ABD2",
"b  c #80ABD3",
"n  c #80ABD5",
"m  c #80ACD5",
"M  c #87B0D7",
"N  c #88B1D7",
"B  c #88B2D8",
"V  c #89B3D8",
"C  c #8CB3D8",
"Z  c #8DB4D9",
"A  c #8DB4DA",
"S  c #8DB5DA",
"D  c #90B6DB",
"F  c #99BCDD",
"G  c #9ABDDD",
"H  c #9BBDDD",
"J  c #9CBEDF",
"K  c #9DBFDF",
"L  c #A0C1DF",
"P  c #A6C5E2",
"I  c #A8C6E2",
"U  c #A9C6E2",
"Y  c #AAC7E4",
"T  c #ACCAE4",
"R  c #ADCAE4",
"E  c #AFCAE4",
"W  c #B0CCE6",
"Q  c #B5CFE6",
"!  c #B6CFE6",
"~  c #B6CFE7",
"^  c #B9D2E8",
"/  c #BCD3E9",
"(  c #BCD4E9",
")  c #BCD4EA",
"_  c #C6D8EC",
"`  c #C6D9ED",
"'  c #C6DAEC",
"]  c #C7DCEC",
"[  c #CADCEC",
"{  c #D1E1F0",
"}  c #D2E2F0",
"|  c #D4E4F3",
" . c #DCE8F3",
".. c #E3EDF5",
"X. c #E7EFF7",
"o. c #EBF2F8",
/* pixels */
"                                ",
"          i 8 < * $             ",
"      V z f y 7 < * # .         ",
"    Y F V M     < q * # o       ",
"    W c b   w 4     j > # X     ",
"  ` p a   n           W > #     ",
"  w 8 a E             ` m *     ",
"  ; 4 A ]               / 6     ",
"  % 6 Q               E Q h =   ",
"  # 8 (               J I D 4   ",
"    < { [           ; A F   0   ",
"    .  .| ( I   z y w m A d     ",
"      b o.| ^ K V h a j   k     ",
"        F X.{ P l i   K A       ",
"              ..| _ Q           ",
"                                "
};
